<svg xmlns="http://www.w3.org/2000/svg" xmlns:xlink="http://www.w3.org/1999/xlink" width="500" zoomAndPan="magnify" viewBox="0 0 375 374.999991" height="500" preserveAspectRatio="xMidYMid meet" version="1.0"><defs><clipPath id="c7272841b3"><path d="M 71.25 21.429688 L 303.75 21.429688 L 303.75 353.679688 L 71.25 353.679688 Z M 71.25 21.429688 " clip-rule="nonzero"/></clipPath></defs><g clip-path="url(#c7272841b3)"><path fill="#ef4444" d="M 187.5 21.429688 C 123.296875 21.429688 71.253906 73.472656 71.253906 137.675781 C 71.253906 220.707031 187.5 353.5625 187.5 353.5625 C 187.5 353.5625 303.746094 220.707031 303.746094 137.675781 C 303.746094 73.472656 251.703125 21.429688 187.5 21.429688 Z M 253.925781 154.28125 L 237.320312 154.28125 L 237.320312 204.101562 L 204.105469 204.101562 L 204.105469 154.28125 L 170.894531 154.28125 L 170.894531 204.101562 L 137.679688 204.101562 L 137.679688 154.28125 L 121.074219 154.28125 L 121.074219 137.675781 L 187.5 87.855469 L 253.925781 137.675781 Z M 253.925781 154.28125 " fill-opacity="1" fill-rule="nonzero"/></g></svg>